/* XPM */
static char *result[] = {
/* columns rows colors chars-per-pixel */
"32 32 52 1 ",
"  c #7F992E",
". c #74873F",
"X c #768A3C",
"o c #788D39",
"O c #7B9234",
"+ c #7E933E",
"@ c #738441",
"# c #7A8B45",
"$ c #7D9040",
"% c #87A91F",
"& c #88AB1D",
"* c #90B41F",
"= c #819C2A",
"- c #839C35",
"; c #80963A",
": c #869D3D",
"> c #85A523",
", c #86A820",
"< c #8DAD25",
"1 c #87A42E",
"2 c #88A52D",
"3 c #8DAD2C",
"4 c #8FB221",
"5 c #92B524",
"6 c #96BC20",
"7 c #91B229",
"8 c #86A131",
"9 c #8AA536",
"0 c #8CA932",
"q c #87A03B",
"w c #88A239",
"e c #9CBE34",
"r c #96B33E",
"t c #99B63D",
"y c #9EBD39",
"u c #9FC32F",
"i c #9EC131",
"p c #A0C52D",
"a c #A5C92E",
"s c #A2C433",
"d c #819446",
"f c #849941",
"g c #809248",
"h c #8A9C54",
"j c #8EA34D",
"k c #93AD44",
"l c #91A74D",
"z c #94AB4B",
"x c #96B144",
"c c #99B343",
"v c #8EA056",
"b c #90A452",
/* pixels */
"$#gg#ggvgg##gg#gg@g#ggggv#ggh#g#",
"gg##g#ggvgv#gggg#gg#g@gg#vgv###g",
"###gg#g##gg@h#gvh##gg#gg#ggg##g#",
"#gghgg#g#######v##v#gg#ggg#g#gvg",
"#vv#h#gggg#g#$#h#ggghv##g@##g#vv",
"hvgg##gvvgggvh#$g@g##vgvg@#g@g#h",
"$#g#@##gvvgvg@#g#@$#h$h##ggg#gg#",
"##gg@#d##h#v#@g#gg#@h#h#g#ggg##g",
"#g#h#gg####gg###g#gg@#g#$h#dvgg#",
"g###vvggg#gggg##ggg#@ggg#hv##ggg",
"#@###vv#vgg#g###dvh#g#g#h$h#g##g",
"#@ggggvvgg#gg##h#$v#ggg#####@#$#",
"g##g#g#g#@d#vh#v#gvhv####@##h##h",
"g#gg#g#@dhd##v#v#g####hvh$#g#vd#",
"gdv#gv$@#dh##$##g#g#d##ghvggvhgg",
"##hvgv#h#v#$h#h##gg###$h#vvgvgg#",
"g#$#ggg#ggvh####gg##g@g#d#vg##@g",
"###hg@#gggv#vdg@#gggg#gg##ggh#gg",
"hdgv$h##ggg#h##@ggv#gggg#h##$gg@",
"#vv#####g#gg##ddg#vvggvg#####vgg",
"vvg####@g@#ghd#####v#v###g@g#hvg",
"hgg$h$g#ggg##v#h#h##ggh#g#g###vg",
"##h##hvgg#g##vv#dvggd##h@#h#@#g#",
"#hd###vgvg#$h$v#v#g#gd##g$#$h#gg",
"$@g@#gg##h#@#gggh##dhv##$hv#gg#g",
"#g#@g$#g###dg#gg#@#dd#vv#vv#g#@g",
"h#ggh##h#$vhgggd#ggg###vdv##ggg#",
"##vgdv#v##hvggvd#gg##@hg####g#gg",
"#v##dvv#h#gv#v##hv#h##gg#h@$#v##",
"vvh###v###gg#h#@d#vvddvgd#@#$hv$",
"v##dh##d$##g#d###h$vgvgg@##h#gvh",
"#h$####d##gv###h#####g##$h######"
};
