/* XPM */
static char *result[] = {
/* columns rows colors chars-per-pixel */
"32 32 22 1 ",
"  c #613333",
". c #4F422F",
"X c #8B210E",
"o c #C1261A",
"O c #FA2B27",
"+ c #8E6213",
"@ c #887418",
"# c #A5731D",
"$ c #B27814",
"% c #9F7A20",
"& c #CA8815",
"* c #C89522",
"= c #E2A923",
"- c #BD9F41",
"; c #F1CC6D",
": c #3B8FB3",
"> c #54CCFF",
", c #84848C",
"< c #D3D2E0",
"1 c #E8E7EF",
"2 c white",
"3 c None",
/* pixels */
"33333333333333333333333333333333",
"33333333333333333333333333333333",
"33333333333333333333333333333333",
"33333333333333333333333333333333",
"33333333333333   333  3333333333",
"3333333333333 @-- 3 @- 333333333",
"33333333333  @-;;@ @-- 333333333",
"3333333333 @-;;;;-@--;@ 33333333",
"333333333 @-;;;;;;--;;- 33333333",
"33333333XX-;;;;;;;;;;;-X 3333333",
"333333 XoXXooOOOOOOOooXX@  33333",
"33333Xooo@XXooOOOOOooXX@-;- 3333",
"33333 oo;;;;;;;;;;;;;;;;;-@ 3333",
"333333X @--;;;;;;;;;;;--@  33333",
"33333333   @@@@@@@@@@@   3333333",
"33333333.*=======.2====2.3333333",
"33333333.$&.#&&==::==2=:.3333333",
"33333333.*=======>>=222>.3333333",
"33333333.+&.#&&&===22.1<.3333333",
"333333333.*====22222,<,.33333333",
"3333333333..%1111111<..333333333",
"333333333333.........33333333333",
"333333333333.$=221<<.33333333333",
"33333333333..==.222<.33333333333",
"3333333333.%.$&=.22<.33333333333",
"3333333333.+..*22.2<.33333333333",
"3333333333.%.%.11.<.333333333333",
"3333333333.+.+%..<%+.33333333333",
"33333333333..%$**..%<.3333333333",
"33333333333.<<*$.3.<<.3333333333",
"333333333333.<<.333..33333333333",
"3333333333333..33333333333333333"
};
