/* XPM */
static char *result[] = {
/* columns rows colors chars-per-pixel */
"32 32 22 1 ",
"  c #613333",
". c #4F422F",
"X c #8B210E",
"o c #C1261A",
"O c #FA2B27",
"+ c #8E6213",
"@ c #887418",
"# c #A5731D",
"$ c #B27814",
"% c #9F7A20",
"& c #CA8815",
"* c #C89522",
"= c #E2A923",
"- c #BD9F41",
"; c #F1CC6D",
": c #3B8FB3",
"> c #54CCFF",
", c #84848C",
"< c #D3D2E0",
"1 c #E8E7EF",
"2 c white",
"3 c None",
/* pixels */
"33333333333333333333333333333333",
"33333333333333333333333333333333",
"33333333333333333333333333333333",
"33333333333333333333333333333333",
"33333333333  333   3333333333333",
"3333333333 -@ 3 --@ 333333333333",
"3333333333 --@ @;;-@  3333333333",
"333333333 @;--@-;;;;-@ 333333333",
"333333333 -;;--;;;;;;-@ 33333333",
"33333333 X-;;;;;;;;;;;-XXXXX3333",
"333333  @XXooOOOOOOOooXXooo33333",
"33333 -;-@XXooOOOOOooXX@-;XX3333",
"33333 @-;;;;;;;;;;;;;;;;;-@ 3333",
"333333  @--;;;;;;;;;;;--@  33333",
"33333333   @@@@@@@@@@@   3333333",
"33333333.2====2.=======*.3333333",
"33333333.:=2==::==&&#.&$.3333333",
"33333333.>222=>>=======*.3333333",
"33333333.<1.22===&&&#.&+.3333333",
"333333333.,<,22222====*.33333333",
"3333333333..<1111111%..333333333",
"333333333333.........33333333333",
"333333333333.<<122=$%.3333333333",
"33333333333..<2222%=&*.333333333",
"3333333333.<.<2221%.=21.33333333",
"3333333333.<.<2221*.121.33333333",
"33333333333...<21*$+.1...3333333",
"3333333333333.%<***%...**.333333",
"33333333333333.*$$+.+.%$%.333333",
"3333333333333.11**..%$*+.3333333",
"3333333333333.<<<.33....33333333",
"33333333333333...333333333333333"
};
