/* XPM */
static char *result[] = {
/* columns rows colors chars-per-pixel */
"16 16 7 1 ",
"  c #25131A",
". c #373737",
"X c #895A45",
"o c #BF704D",
"O c #90919E",
"+ c #ADC1CF",
"@ c None",
/* pixels */
"@@@@@@@@@@@@@@@@",
"@@@@      @@@@@@",
"@@@ +OOOOO @@@@@",
"@@ +O      @@  @",
"@@ OO + + + @ + ",
"@@ O+ + + + @ + ",
"@@ O+++++++ @ o@",
"@   OOO  O  @X @",
" O+  OOOO +    @",
" O+ .. + .+ Xo @",
" X  . OO+.   o @",
"   XXo + o @   @",
"@@ ... + . @ X @",
"@ ..... ... o @@",
"@ .... X .. X @@",
"@@@@@@@@@@@@@@@@"
};
